<svg id="Layer_1" data-name="Layer 1" xmlns="http://www.w3.org/2000/svg" xmlns:xlink="http://www.w3.org/1999/xlink" viewBox="0 0 3937 609"><defs><style>.cls-1{fill:url(#radial-gradient);}.cls-2{fill:url(#radial-gradient-3);}.cls-3{fill:url(#radial-gradient-5);}.cls-4{fill:#840051;}.cls-5{fill:url(#linear-gradient);}.cls-6,.cls-7{font-size:193px;font-family:Avenir-Medium, Avenir;font-weight:500;}.cls-7{fill:#fff;}.cls-8{fill:url(#radial-gradient-7);}.cls-9{fill:url(#radial-gradient-8);}.cls-10{fill:url(#radial-gradient-9);}</style><radialGradient id="radial-gradient" cx="368.28" cy="286.84" r="200" gradientTransform="translate(-159.2 -42.65) scale(1.16 1)" gradientUnits="userSpaceOnUse"><stop offset="0"/><stop offset="1" stop-color="#fff" stop-opacity="0"/></radialGradient><radialGradient id="radial-gradient-3" cx="467.41" cy="416.77" r="200" gradientTransform="translate(-159.2 -19.27) scale(1.16 1)" xlink:href="#radial-gradient"/><radialGradient id="radial-gradient-5" cx="365.69" cy="406.58" r="200" gradientTransform="translate(-159.2 -21.11) scale(1.16 1)" xlink:href="#radial-gradient"/><linearGradient id="linear-gradient" x1="-72.81" y1="-43.43" x2="461.13" y2="388.95" gradientUnits="userSpaceOnUse"><stop offset="0" stop-color="#fff"/><stop offset="1" stop-color="#fff" stop-opacity="0"/></linearGradient><radialGradient id="radial-gradient-7" cx="362.42" cy="-429.59" r="78.15" gradientTransform="translate(-445.86 463.88) scale(1.66 0.28)" gradientUnits="userSpaceOnUse"><stop offset="0.08" stop-color="#eeff41" stop-opacity="0.4"/><stop offset="0.42" stop-color="#f4ff81" stop-opacity="0.26"/><stop offset="1" stop-color="#fff" stop-opacity="0"/></radialGradient><radialGradient id="radial-gradient-8" cx="437.63" cy="-429.59" r="78.15" gradientTransform="translate(-570.86 338.88) scale(1.66 0.28)" xlink:href="#radial-gradient-7"/><radialGradient id="radial-gradient-9" cx="370.85" cy="-113.01" r="78.15" gradientTransform="translate(-102.86 360.43) scale(1.66 0.28)" xlink:href="#radial-gradient-7"/></defs><rect class="cls-1" x="36" y="8" width="464" height="471" rx="32.59"/><rect class="cls-1" x="36" y="8" width="464" height="471" rx="32.59"/><rect class="cls-2" x="151" y="161" width="464" height="471" rx="32.59"/><rect class="cls-2" x="151" y="161" width="464" height="471" rx="32.59"/><rect class="cls-3" x="33" y="149" width="464" height="471" rx="32.59"/><rect class="cls-3" x="33" y="149" width="464" height="471" rx="32.59"/><rect class="cls-4" x="134" y="86" width="400" height="400" rx="32.59"/><rect class="cls-5" x="134" y="86" width="400" height="400" rx="32.59"/><text class="cls-6" transform="translate(179.8 332.58)">gID</text><text class="cls-7" transform="translate(173.34 324.41)">gID</text><rect class="cls-8" x="-23" y="316" width="359" height="53" transform="translate(-186 499) rotate(-90)"/><rect class="cls-9" x="-23" y="191" width="359" height="53" transform="translate(-61 374) rotate(-90)"/><rect class="cls-10" x="334" y="302" width="359" height="53" transform="translate(185 842) rotate(-90)"/></svg>