<svg id="Layer_1" data-name="Layer 1" xmlns="http://www.w3.org/2000/svg" xmlns:xlink="http://www.w3.org/1999/xlink" viewBox="0 0 7126 642"><defs><style>.cls-1{fill:#233d0e;}.cls-2{fill:#7ac943;}.cls-3{fill:url(#radial-gradient);}.cls-4{opacity:0.33;fill:url(#linear-gradient);}.cls-5{fill:url(#linear-gradient-2);}.cls-10,.cls-6,.cls-7{fill:#fff;}.cls-7{opacity:0.37;}.cls-10,.cls-8{font-size:228px;font-family:Avenir-Light, Avenir;font-weight:300;}.cls-8{fill:#447c1d;}.cls-9{letter-spacing:0em;}</style><radialGradient id="radial-gradient" cx="341.25" cy="322.58" r="321.22" gradientTransform="translate(-2.85 4.06) scale(1 0.99)" gradientUnits="userSpaceOnUse"><stop offset="0" stop-color="#fff" stop-opacity="0"/><stop offset="1" stop-color="#447c1d"/></radialGradient><linearGradient id="linear-gradient" x1="343.52" y1="602.99" x2="343.52" y2="531.19" gradientUnits="userSpaceOnUse"><stop offset="0.35" stop-color="#fff"/><stop offset="1" stop-color="#fff" stop-opacity="0.2"/></linearGradient><linearGradient id="linear-gradient-2" x1="349.55" y1="153.39" x2="230.95" y2="-52.03" gradientUnits="userSpaceOnUse"><stop offset="0" stop-color="#fff" stop-opacity="0"/><stop offset="1" stop-color="#fff"/></linearGradient></defs><rect class="cls-1" x="46.38" y="29.09" width="594.88" height="594.88" rx="69.51"/><rect class="cls-2" x="41.62" y="28.34" width="594.88" height="594.88" rx="69.51"/><rect class="cls-3" x="41" y="29" width="595.51" height="590.22" rx="69.51"/><path class="cls-4" d="M568.4,589.47H127.14c-24.06-.37-41.31-11.78-42.61-23.53-1.62-14.75,22.3-26.37,24.4-27.36,23.86-11.28,50.12-4.35,57.77-2.38,61.82,15.86,146.63,24.8,186.17,26.17,93.43,3.24,172-16.65,172-16.65,25.07-6.35,61-17.4,73.18-3.57,6.69,7.59,5.59,22-1.28,32.12C587.37,588.19,570.16,589.38,568.4,589.47Z"/><path class="cls-5" d="M83,155.24a160.25,160.25,0,0,1-41.66-38.1L41,99c0-4.79.17-29.75,20-50,21.29-21.74,48.62-21.17,53-21l451,1a186.84,186.84,0,0,0-63.73,7.6c-22.46,6.8-39.71,16.94-55.18,25.84C408.66,84,394.69,101,372.29,118.36,294.79,178.5,164.89,206.47,83,155.24Z"/><path class="cls-6" d="M217.41,63.12C271.34,58.94,309.68,56,309.66,52c0-5-59.51-13.14-123.42-4.77-35.8,4.69-73.36,14.61-72.85,18.64C114.07,71.12,180.94,65.94,217.41,63.12Z"/><path class="cls-6" d="M108.94,66.8c-.58-2.39-8.23-3.6-14.28-1.18s-10.73,8.61-9.52,10.7c1.45,2.48,11.08-.89,11.9-1.19C102,73.38,109.57,69.39,108.94,66.8Z"/><path class="cls-7" d="M82.05,415.47C79.66,455.3,73.88,516.75,70.16,516.6c-5.65-.23-4.15-141.8-1-236.1,1.79-53.11,2.68-79.66,4.76-79.71C78.38,200.67,88.81,303.09,82.05,415.47Z"/><path class="cls-7" d="M103.39,243.21c0,13.82-2,35.5-5.71,36.1-5.58.9-12.5-47-15-79.28-1.39-18.17-2.09-27.26,0-27.64C87,171.58,103.38,204.23,103.39,243.21Z"/><text class="cls-8" transform="translate(98.64 396.44)">sg<tspan class="cls-9" x="236.43" y="0">l</tspan><tspan x="291.38" y="0">ib</tspan></text><text class="cls-10" transform="translate(98.49 388.4)">sg<tspan class="cls-9" x="236.43" y="0">l</tspan><tspan x="291.38" y="0">ib</tspan></text></svg>